<svg width="297" height="37" viewBox="0 0 297 37" fill="none" xmlns="http://www.w3.org/2000/svg">
<path d="M9.34976 36.22C6.56576 36.22 4.32576 35.516 2.62976 34.108C0.965755 32.668 0.133755 30.732 0.133755 28.3C0.133755 25.74 0.933755 23.772 2.53376 22.396C4.16576 20.988 6.46976 20.284 9.44576 20.284C12.6138 20.284 15.3018 20.924 17.5098 22.204V21.004C17.5098 19.18 16.9498 17.836 15.8298 16.972C14.7418 16.076 13.0138 15.628 10.6458 15.628C9.23776 15.628 7.86176 15.772 6.51776 16.06C5.20576 16.316 4.02176 16.684 2.96575 17.164V13.228C3.92576 12.78 5.17376 12.428 6.70976 12.172C8.24576 11.884 9.73376 11.74 11.1738 11.74C14.9818 11.74 17.7978 12.588 19.6218 14.284C21.4778 15.948 22.4058 18.268 22.4058 21.244V35.5H17.8458V32.908C16.8538 33.996 15.6698 34.828 14.2938 35.404C12.9498 35.948 11.3018 36.22 9.34976 36.22ZM10.5498 32.524C12.0858 32.524 13.4778 32.22 14.7258 31.612C15.9738 31.004 16.9018 30.156 17.5098 29.068V25.948C15.4298 24.604 13.1098 23.932 10.5498 23.932C8.69376 23.932 7.30176 24.3 6.37376 25.036C5.47776 25.74 5.02975 26.828 5.02975 28.3C5.02975 31.116 6.86976 32.524 10.5498 32.524ZM27.9419 0.0279989H32.7899V35.5H27.9419V0.0279989ZM38.5713 0.0279989H43.4193V35.5H38.5713V0.0279989ZM61.3446 36.22C58.7846 36.22 56.5126 35.74 54.5286 34.78C52.5446 33.82 50.9926 32.428 49.8726 30.604C48.7846 28.748 48.2406 26.556 48.2406 24.028C48.2406 21.5 48.7846 19.324 49.8726 17.5C50.9926 15.644 52.5446 14.22 54.5286 13.228C56.5446 12.236 58.8486 11.74 61.4406 11.74C64.9606 11.74 67.7766 12.428 69.8886 13.804V17.788C67.8086 16.348 65.1526 15.628 61.9206 15.628C59.2966 15.628 57.1686 16.348 55.5366 17.788C53.9366 19.196 53.1366 21.276 53.1366 24.028C53.1366 26.78 53.9366 28.86 55.5366 30.268C57.1366 31.676 59.2326 32.38 61.8246 32.38C65.0566 32.38 67.8406 31.612 70.1766 30.076V34.012C69.0566 34.78 67.7766 35.34 66.3366 35.692C64.9286 36.044 63.2646 36.22 61.3446 36.22ZM82.9923 36.22C80.2083 36.22 77.9683 35.516 76.2723 34.108C74.6083 32.668 73.7763 30.732 73.7763 28.3C73.7763 25.74 74.5763 23.772 76.1763 22.396C77.8083 20.988 80.1123 20.284 83.0883 20.284C86.2563 20.284 88.9443 20.924 91.1523 22.204V21.004C91.1523 19.18 90.5923 17.836 89.4723 16.972C88.3843 16.076 86.6563 15.628 84.2883 15.628C82.8803 15.628 81.5043 15.772 80.1603 16.06C78.8483 16.316 77.6643 16.684 76.6083 17.164V13.228C77.5683 12.78 78.8163 12.428 80.3523 12.172C81.8883 11.884 83.3763 11.74 84.8163 11.74C88.6243 11.74 91.4403 12.588 93.2643 14.284C95.1203 15.948 96.0483 18.268 96.0483 21.244V35.5H91.4883V32.908C90.4963 33.996 89.3123 34.828 87.9363 35.404C86.5923 35.948 84.9443 36.22 82.9923 36.22ZM84.1923 32.524C85.7283 32.524 87.1203 32.22 88.3683 31.612C89.6163 31.004 90.5443 30.156 91.1523 29.068V25.948C89.0723 24.604 86.7523 23.932 84.1923 23.932C82.3363 23.932 80.9443 24.3 80.0163 25.036C79.1203 25.74 78.6723 26.828 78.6723 28.3C78.6723 31.116 80.5123 32.524 84.1923 32.524ZM115.888 36.22C113.808 36.22 112 35.9 110.464 35.26C108.96 34.588 107.568 33.548 106.288 32.14V35.5H101.584V0.0279989H106.432V15.532C107.488 14.284 108.848 13.34 110.512 12.7C112.176 12.06 113.968 11.74 115.888 11.74C118.192 11.74 120.256 12.268 122.08 13.324C123.936 14.348 125.376 15.788 126.4 17.644C127.456 19.5 127.984 21.628 127.984 24.028C127.984 26.46 127.456 28.604 126.4 30.46C125.376 32.284 123.936 33.708 122.08 34.732C120.256 35.724 118.192 36.22 115.888 36.22ZM114.784 32.38C116.352 32.38 117.76 32.044 119.008 31.372C120.288 30.668 121.28 29.676 121.984 28.396C122.72 27.116 123.088 25.66 123.088 24.028C123.088 22.396 122.72 20.94 121.984 19.66C121.28 18.38 120.288 17.388 119.008 16.684C117.76 15.98 116.352 15.628 114.784 15.628C112.832 15.628 111.088 16.156 109.552 17.212C108.016 18.268 106.976 19.676 106.432 21.436V26.62C107.04 28.38 108.08 29.788 109.552 30.844C111.056 31.868 112.8 32.38 114.784 32.38ZM132.792 0.0279989H137.64V35.5H132.792V0.0279989ZM156.093 36.22C151.837 36.22 148.493 35.164 146.061 33.052C143.661 30.908 142.461 27.9 142.461 24.028C142.461 20.252 143.533 17.26 145.677 15.052C147.853 12.844 150.941 11.74 154.941 11.74C157.597 11.74 159.853 12.252 161.709 13.276C163.565 14.268 164.957 15.66 165.885 17.452C166.845 19.212 167.325 21.228 167.325 23.5V25.9H147.069C147.229 28.076 148.141 29.708 149.805 30.796C151.501 31.852 153.789 32.38 156.669 32.38C158.141 32.38 159.629 32.252 161.133 31.996C162.637 31.708 163.965 31.34 165.117 30.892V34.78C164.093 35.196 162.733 35.532 161.037 35.788C159.373 36.076 157.725 36.22 156.093 36.22ZM162.765 22.492C162.701 20.316 161.981 18.636 160.605 17.452C159.261 16.236 157.341 15.628 154.845 15.628C152.413 15.628 150.525 16.252 149.181 17.5C147.837 18.748 147.133 20.412 147.069 22.492H162.765ZM180.64 36.22C179.04 36.22 177.344 36.012 175.552 35.596C173.76 35.212 172.352 34.684 171.328 34.012V29.884C172.576 30.62 174.016 31.228 175.648 31.708C177.28 32.156 178.864 32.38 180.4 32.38C182.128 32.38 183.392 32.172 184.192 31.756C184.992 31.34 185.392 30.668 185.392 29.74C185.392 29.036 185.2 28.476 184.816 28.06C184.464 27.612 183.84 27.212 182.944 26.86C182.08 26.508 180.768 26.092 179.008 25.612C177.12 25.068 175.616 24.524 174.496 23.98C173.408 23.404 172.576 22.684 172 21.82C171.456 20.956 171.184 19.836 171.184 18.46C171.184 16.252 172.048 14.588 173.776 13.468C175.536 12.316 177.888 11.74 180.832 11.74C182.368 11.74 183.872 11.884 185.344 12.172C186.816 12.46 188 12.86 188.896 13.372V17.404C187.968 16.86 186.816 16.428 185.44 16.108C184.096 15.788 182.72 15.628 181.312 15.628C179.616 15.628 178.32 15.836 177.424 16.252C176.528 16.668 176.08 17.404 176.08 18.46C176.08 19.132 176.272 19.676 176.656 20.092C177.04 20.508 177.648 20.876 178.48 21.196C179.344 21.484 180.704 21.868 182.56 22.348C185.472 23.148 187.488 24.092 188.608 25.18C189.76 26.268 190.336 27.772 190.336 29.692C190.336 31.676 189.52 33.26 187.888 34.444C186.256 35.628 183.84 36.22 180.64 36.22Z" fill="black"/>
<path d="M196.301 35.5C195.533 35.5 194.877 35.244 194.333 34.732C193.821 34.22 193.565 33.58 193.565 32.812C193.565 32.044 193.837 31.388 194.381 30.844C194.925 30.3 195.565 30.028 196.301 30.028C197.069 30.028 197.725 30.3 198.269 30.844C198.813 31.388 199.085 32.044 199.085 32.812C199.085 33.58 198.813 34.22 198.269 34.732C197.725 35.244 197.069 35.5 196.301 35.5ZM202.623 1.948H216.735C220.543 1.948 223.583 2.956 225.855 4.972C228.127 6.956 229.263 9.724 229.263 13.276C229.263 16.924 228.127 19.724 225.855 21.676C223.615 23.628 220.575 24.604 216.735 24.604H209.919V35.5H202.623V1.948ZM215.679 18.508C219.807 18.508 221.871 16.764 221.871 13.276C221.871 11.324 221.311 9.964 220.191 9.196C219.103 8.428 217.599 8.044 215.679 8.044H209.919V18.508H215.679ZM232.143 1.948H246.687C250.495 1.948 253.455 2.908 255.567 4.828C257.711 6.716 258.783 9.452 258.783 13.036C258.783 15.532 258.207 17.66 257.055 19.42C255.903 21.148 254.271 22.412 252.159 23.212L258.543 35.5H251.055L245.151 24.124H239.439V35.5H232.143V1.948ZM245.391 18.028C247.247 18.028 248.703 17.628 249.759 16.828C250.847 16.028 251.391 14.764 251.391 13.036C251.391 11.212 250.863 9.932 249.807 9.196C248.751 8.428 247.279 8.044 245.391 8.044H239.439V18.028H245.391ZM278.655 36.22C275.295 36.22 272.239 35.484 269.487 34.012C266.767 32.54 264.623 30.492 263.055 27.868C261.487 25.212 260.703 22.172 260.703 18.748C260.703 15.324 261.487 12.284 263.055 9.628C264.623 6.972 266.767 4.908 269.487 3.436C272.239 1.964 275.295 1.228 278.655 1.228C282.015 1.228 285.039 1.964 287.727 3.436C290.447 4.908 292.591 6.972 294.159 9.628C295.727 12.284 296.511 15.324 296.511 18.748C296.511 22.172 295.727 25.212 294.159 27.868C292.591 30.492 290.447 32.54 287.727 34.012C285.039 35.484 282.015 36.22 278.655 36.22ZM278.655 29.5C280.575 29.5 282.319 29.068 283.887 28.204C285.487 27.308 286.751 26.06 287.679 24.46C288.607 22.828 289.071 20.924 289.071 18.748C289.071 16.604 288.607 14.732 287.679 13.132C286.783 11.5 285.535 10.252 283.935 9.388C282.367 8.492 280.607 8.044 278.655 8.044C276.671 8.044 274.879 8.492 273.279 9.388C271.711 10.252 270.463 11.5 269.535 13.132C268.607 14.732 268.143 16.604 268.143 18.748C268.143 20.924 268.607 22.828 269.535 24.46C270.463 26.06 271.727 27.308 273.327 28.204C274.927 29.068 276.703 29.5 278.655 29.5Z" fill="#019F8C"/>
</svg>
